<svg width="20" height="21" fill="none" xmlns="http://www.w3.org/2000/svg">
  <path d="M16.8625 12.675c-.3125-1.4542-1.9517-2.92165-3.3417-3.43749l-.4533-4.12333 1.2458-1.86833c.1308-.19667.1433-.44834.0308-.65584-.1116-.20833-.3266-.33583-.5625-.33583H6.16497c-.23666 0-.45166.12833-.56333.33583-.11167.20834-.1.46084.03167.65667l1.24833 1.8725-.40333 4.11917c-1.39.51666-3.0275 1.98335-3.33667 3.42995-.03333.1334-.01333.3367.11.495.08583.11.25333.2417.56667.2417h3.38166l2.42 5.5933c.065.1534.21667.2517.38163.2517.165 0 .3167-.0983.3834-.2517l2.4191-5.5941h3.3809c.3133 0 .48-.13.5666-.2384.1217-.1566.1434-.3616.1125-.4916l-.0016.0008Z" fill="#536471"/>
</svg>
